<?xml version="1.0" encoding="UTF-8" standalone="no"?>
<svg
   enable-background="new 0 0 570 200"
   version="1.1"
   viewBox="0 0 481 110"
   id="svg52"
   sodipodi:docname="CC_BY-NC-SA.svg"
   width="481"
   height="110"
   inkscape:version="1.2.2 (732a01da63, 2022-12-09)"
   xmlns:inkscape="http://www.inkscape.org/namespaces/inkscape"
   xmlns:sodipodi="http://sodipodi.sourceforge.net/DTD/sodipodi-0.dtd"
   xmlns="http://www.w3.org/2000/svg"
   xmlns:svg="http://www.w3.org/2000/svg">
  <defs
     id="defs56" />
  <sodipodi:namedview
     id="namedview54"
     pagecolor="#ffffff"
     bordercolor="#cccccc"
     borderopacity="1"
     inkscape:showpageshadow="0"
     inkscape:pageopacity="0"
     inkscape:pagecheckerboard="0"
     inkscape:deskcolor="#d1d1d1"
     showgrid="false"
     inkscape:zoom="2.2438596"
     inkscape:cx="196.98202"
     inkscape:cy="84.229867"
     inkscape:window-width="1920"
     inkscape:window-height="1009"
     inkscape:window-x="-8"
     inkscape:window-y="-8"
     inkscape:window-maximized="1"
     inkscape:current-layer="svg52" />
  <style
     type="text/css"
     id="style2">.st0{fill:#ABB1AA;} .st1{fill:#FFFFFF;} .st2{fill:#FFFFFF;stroke:#000000;stroke-width:14;stroke-miterlimit:10;}</style>
  <g
     id="g348"
     transform="translate(-69.333334,-15.6)">
    <circle
       class="st1"
       cx="248"
       cy="70.599998"
       r="50"
       id="circle22" />
    <path
       d="m 248,25.6 c 24.8,0 45,20.2 45,45 0,24.8 -20.2,45 -45,45 -24.8,0 -45,-20.2 -45,-45 0,-24.8 20.2,-45 45,-45 m 0,-10 c -30.4,0 -55,24.6 -55,55 0,30.4 24.6,55 55,55 30.4,0 55,-24.6 55,-55 0,-30.4 -24.6,-55 -55,-55 z"
       id="path24" />
    <circle
       cx="248"
       cy="43"
       r="7.9000001"
       id="circle26" />
    <path
       d="m 261.2,57.9 c 0,-0.8 0.1,-2.3 -1.1,-3.5 -1.1,-1.1 -2.7,-1.1 -3.5,-1.1 h -17.3 c -0.8,0 -2.3,-0.1 -3.5,1.1 -1.1,1.1 -1.1,2.7 -1.1,3.5 v 21.9 h 5 v 26.4 h 16.4 V 79.8 h 5 c 0.1,0 0.1,-18.9 0.1,-21.9 z"
       id="path28" />
  </g>
  <g
     id="g968"
     transform="translate(-66,-70.6)">
    <circle
       class="st1"
       cx="121"
       cy="125.6"
       r="50"
       id="circle22-1"
       style="fill:#ffffff" />
    <g
       id="g342"
       transform="matrix(0.72847682,0,0,0.72847682,49.609272,57.851656)">
      <circle
         class="st2"
         cx="98"
         cy="93"
         r="68.5"
         id="circle30" />
      <path
         d="m 78.8,106.3 c -6.9,0 -10.1,-5.7 -10.1,-13.3 0,-7.6 2.7,-13.3 10.1,-13.3 2,0 6,1.1 8.3,6.1 l 10,-5.2 C 92.9,72.9 85.6,69.8 77.2,69.8 c -12.2,0 -22,8.6 -22,23.3 0,14.9 9.2,23.3 22.4,23.3 8.5,0 15.7,-4.7 19.7,-11.7 L 88,100 c -2,4.8 -5.2,6.3 -9.2,6.3 z"
         id="path32" />
      <path
         d="m 131.4,99.8 c -2.1,5 -5.2,6.5 -9.2,6.5 -6.9,0 -10.1,-5.7 -10.1,-13.3 0,-7.6 2.7,-13.3 10.1,-13.3 2,0 6,1.1 8.3,6.1 l 10,-5.2 C 136.3,72.9 129,69.8 120.6,69.8 c -12.2,0 -22,8.6 -22,23.3 0,14.9 9.2,23.3 22.4,23.3 8.5,0 15.7,-4.7 19.7,-11.7 z"
         id="path34" />
    </g>
  </g>
  <g
     id="g360"
     transform="translate(-66,-15.6)">
    <circle
       class="st1"
       cx="492"
       cy="70.599998"
       r="50"
       id="circle36" />
    <path
       d="m 492,25.6 c 24.8,0 45,20.2 45,45 0,24.8 -20.2,45 -45,45 -24.8,0 -45,-20.2 -45,-45 0,-24.8 20.2,-45 45,-45 m 0,-10 c -30.4,0 -55,24.6 -55,55 0,30.4 24.6,55 55,55 30.4,0 55,-24.6 55,-55 0,-30.4 -24.6,-55 -55,-55 z"
       id="path38" />
    <path
       d="m 493.2,40.4 h -1.7 c -9.9,0.2 -23.4,7.1 -23.4,20.6 h -4.7 l 10.7,12 10.7,-12 h -3.9 c 0.8,-5.8 6,-9.6 11.9,-9.1 h 0.7 c 9.7,0 13.5,7.3 13.8,18.1 0.3,11.3 -6.2,18.3 -13.8,18.1 -8,-0.2 -11.1,-4 -12.2,-9.8 H 467 c 2.4,13.4 12.2,21.3 26.3,21.3 15.9,0 27.3,-13.2 27.3,-29.6 0,-17.4 -11.5,-29.6 -27.4,-29.6 z"
       id="path40" />
  </g>
  <g
     id="g355"
     transform="translate(-67.666667,-15.6)">
    <circle
       class="st1"
       cx="370"
       cy="70.599998"
       r="50"
       id="circle42" />
    <path
       d="m 370,25.6 c 24.8,0 45,20.2 45,45 0,24.8 -20.2,45 -45,45 -24.8,0 -45,-20.2 -45,-45 0,-24.8 20.2,-45 45,-45 m 0,-10 c -30.4,0 -55,24.6 -55,55 0,30.4 24.6,55 55,55 30.4,0 55,-24.6 55,-55 0,-30.4 -24.6,-55 -55,-55 z"
       id="path44" />
    <path
       d="m 420,86.6 -4.5,9.9 -95.5,-43 4.5,-9.9 z"
       id="path46" />
    <path
       d="m 358.3,81.8 c 3.5,5 14.4,5.3 18.1,3.2 1.4,-0.8 1.7,-3 1.7,-4.5 0,-1 -0.3,-1.9 -0.8,-2.5 -0.6,-0.6 -2,-2.1 -3.7,-2.5 -8.6,-2.2 -14.6,-5 -16.9,-7 -2.9,-2.5 -3.4,-4.2 -3.4,-8.6 0,-4.4 1.3,-8.1 4.1,-10.7 2.9,-2.6 7,-4 12.4,-4 5.2,0 12.5,1.4 16.1,5.6 l -5.9,6.5 c -3.4,-2.8 -5.8,-3.1 -9.9,-3.1 -2.6,0 -3.9,0.4 -5,1.1 -1.1,0.7 -1.6,1.6 -1.6,2.8 0,1 0.5,1.9 1.5,2.6 1,0.7 3.6,1.8 8.8,3.2 5.9,1.6 9.8,3.5 11.9,5.8 2.1,2.3 3.1,5.3 3.1,9.1 0,4.6 -1.6,8.3 -4.8,11.3 -3.2,3 -7.1,5.3 -12.8,5.3 -7.3,0 -17,-2.6 -19.7,-7.3"
       id="path48" />
    <path
       d="m 366.4,36.5 v 12 h 5.2 v -12 z m 0,56.7 v 10.3 h 5.2 V 93.2 Z"
       id="path50" />
  </g>
</svg>
